<?xml version="1.0" encoding="UTF-8"?>
<!DOCTYPE svg PUBLIC "-//W3C//DTD SVG 1.1//EN" "http://www.w3.org/Graphics/SVG/1.1/DTD/svg11.dtd">
<!-- Creator: CorelDRAW X6 -->
<svg xmlns="http://www.w3.org/2000/svg" xml:space="preserve" width="69px" height="25px" version="1.1" style="shape-rendering:geometricPrecision; text-rendering:geometricPrecision; image-rendering:optimizeQuality; fill-rule:evenodd; clip-rule:evenodd" viewBox="0 0 690 254" xmlns:xlink="http://www.w3.org/1999/xlink">
 <defs>
  <style type="text/css">
   <![CDATA[
    .fil0 {fill:#FF5500;fill-rule:nonzero}
   ]]>
  </style>
 </defs>
 <g id="Layer_x0020_1">
  <metadata id="CorelCorpID_0Corel-Layer"/>
  <path class="fil0" d="M172 142l-14 25 -50 0 -9 16 9 16 68 0 73 -127 -9 -16 -18 0 -32 56 -96 0 0 0 -47 -81 597 0 -24 40 9 16 18 0 43 -71 -9 -16 -670 0 -9 15 74 127 96 0zm396 -31l0 0 23 -40 -9 -16 -129 0 -9 15 9 16 93 0 -14 24 -46 0 -9 16 9 16 111 0 47 81 -598 0 24 -40 -9 -16 -18 0 -34 56 -9 15 9 16 18 0 652 0 9 -16 -74 -127 -46 0zm-148 31l0 0 1 -2 -1 2 14 25 -173 0 14 -25 145 0zm-112 -55l0 0 62 0 -14 24 -62 0 14 -24zm98 -31l0 0 -116 0 -9 15 -56 96 -9 16 9 16 245 0 0 0 0 0 9 -15 -9 -16 -32 -56 -46 0 23 -40 -9 -16z"/>
 </g>
</svg>